<svg xmlns="http://www.w3.org/2000/svg" width="1920" height="1090" fill="#050b18"><g fill="#2C2C2C" clip-path="url(#a)"><path d="M-1 0h1v1090h-1zM31 0h1v1090h-1zM63 0h1v1090h-1zM95 0h1v1090h-1zM127 0h1v1090h-1zM159 0h1v1090h-1zM191 0h1v1090h-1zM223 0h1v1090h-1zM255 0h1v1090h-1zM287 0h1v1090h-1zM319 0h1v1090h-1zM351 0h1v1090h-1zM383 0h1v1090h-1zM415 0h1v1090h-1zM447 0h1v1090h-1zM479 0h1v1090h-1zM511 0h1v1090h-1zM543 0h1v1090h-1zM575 0h1v1090h-1zM607 0h1v1090h-1zM639 0h1v1090h-1zM671 0h1v1090h-1zM703 0h1v1090h-1zM735 0h1v1090h-1zM767 0h1v1090h-1zM799 0h1v1090h-1zM831 0h1v1090h-1zM863 0h1v1090h-1zM895 0h1v1090h-1zM927 0h1v1090h-1zM959 0h1v1090h-1zM991 0h1v1090h-1zM1023 0h1v1090h-1zM1055 0h1v1090h-1zM1087 0h1v1090h-1zM1119 0h1v1090h-1zM1151 0h1v1090h-1zM1183 0h1v1090h-1zM1215 0h1v1090h-1zM1247 0h1v1090h-1zM1279 0h1v1090h-1zM1311 0h1v1090h-1zM1343 0h1v1090h-1zM1375 0h1v1090h-1zM1407 0h1v1090h-1zM1439 0h1v1090h-1zM1471 0h1v1090h-1zM1503 0h1v1090h-1zM1535 0h1v1090h-1zM1567 0h1v1090h-1zM1599 0h1v1090h-1zM1631 0h1v1090h-1zM1663 0h1v1090h-1zM1695 0h1v1090h-1zM1727 0h1v1090h-1zM1759 0h1v1090h-1zM1791 0h1v1090h-1zM1823 0h1v1090h-1zM1855 0h1v1090h-1zM1887 0h1v1090h-1zM1919 0h1v1090h-1z"/><path d="M-.001.006v1h1920v-1zM-.001 32.006v1h1920v-1zM-.001 64.006v1h1920v-1zM-.001 96.006v1h1920v-1zM-.001 128.006v1h1920v-1zM-.001 160.006v1h1920v-1zM-.001 192.006v1h1920v-1zM-.001 224.006v1h1920v-1zM-.001 256.006v1h1920v-1zM-.001 288.006v1h1920v-1zM-.001 320.006v1h1920v-1zM-.001 352.006v1h1920v-1zM-.001 384.006v1h1920v-1zM-.001 416.006v1h1920v-1zM-.001 448.006v1h1920v-1zM-.001 480.006v1h1920v-1zM-.001 512.006v1h1920v-1zM-.001 544.006v1h1920v-1zM-.001 576.006v1h1920v-1zM-.001 608.006v1h1920v-1zM-.001 640.006v1h1920v-1zM-.001 672.006v1h1920v-1zM-.001 704.006v1h1920v-1zM-.001 736.006v1h1920v-1zM-.001 768.006v1h1920v-1zM-.001 800.006v1h1920v-1zM-.001 832.006v1h1920v-1zM-.001 864.006v1h1920v-1zM-.001 896.006v1h1920v-1zM-.001 928.006v1h1920v-1zM-.001 960.006v1h1920v-1zM-.001 992.006v1h1920v-1zM-.001 1024.01v1h1920v-1zM-.001 1056.01v1h1920v-1zM0 1088v1h1920v-1z"/></g><defs><clipPath id="a"><path fill="#fff" d="M0 0h1920v1090H0z"/></clipPath></defs></svg>